<svg width="24px" height="24px" viewBox="0 0 24 24" version="1.1" xmlns="http://www.w3.org/2000/svg"
    xmlns:xlink="http://www.w3.org/1999/xlink">
    <g id="Icon/Content/Categories/Phones" stroke="none" stroke-width="1" fill="none"
        fill-rule="evenodd">
        <rect id="Path" fill-rule="nonzero" x="0" y="0" width="24" height="24" />
        <path class="stylesvg"
            d="M10.6,2 C11.9254834,2 13,3.0745166 13,4.4 L13,5 L18.6,5 C19.9254834,5 21,6.0745166 21,7.4 L21,19.6 C21,20.9254834 19.9254834,22 18.6,22 L12.4,22 C11.2111896,22 10.224259,21.1356498 10.0333701,20.0011113 L5.4,20 C4.0745166,20 3,18.9254834 3,17.6 L3,4.4 C3,3.0745166 4.0745166,2 5.4,2 L10.6,2 Z M16.7,20 L14.3,20 C14.1343146,20 14,20.2238576 14,20.5 C14,20.7416246 14.1028346,20.9432186 14.2395395,20.9898418 L14.3,21 L16.7,21 C16.8656854,21 17,20.7761424 17,20.5 C17,20.2238576 16.8656854,20 16.7,20 Z M8.5,16.2105263 C7.67157288,16.2105263 7,16.8467533 7,17.6315789 C7,18.4164046 7.67157288,19.0526316 8.5,19.0526316 C9.32842712,19.0526316 10,18.4164046 10,17.6315789 C10,16.8467533 9.32842712,16.2105263 8.5,16.2105263 Z M18.7,7 L12.3,7 C12.1579839,7 12.0390158,7.0986801 12.0079232,7.23121275 L12,7.3 L12,18.7 C12,18.8420161 12.0986801,18.9609842 12.2312128,18.9920768 L12.3,19 L18.7,19 C18.8420161,19 18.9609842,18.9013199 18.9920768,18.7687872 L19,18.7 L19,7.3 C19,7.13431458 18.8656854,7 18.7,7 Z M10.7,3.89473684 L5.3,3.89473684 C5.15798392,3.89473684 5.03901581,3.99341694 5.00792321,4.12594959 L5,4.19473684 L5,14.9631579 C5,15.105174 5.0986801,15.2241421 5.23121275,15.2552347 L5.3,15.2631579 L10,15.263 L10,7.4 C10,6.59719889 10.3941672,5.88646046 10.9995269,5.45075934 L11,4.19473684 C11,4.02905142 10.8656854,3.89473684 10.7,3.89473684 Z"
            id="Phones" fill="#006FB9" fill-rule="nonzero" />
    </g>
</svg>