<svg width="24px" height="24px" viewBox="0 0 24 24" version="1.1" xmlns="http://www.w3.org/2000/svg"
    xmlns:xlink="http://www.w3.org/1999/xlink">
    <g id="Icon/Content/Categories/Electronics" stroke="none" stroke-width="1" fill="none"
        fill-rule="evenodd">
        <rect id="Path" fill-rule="nonzero" x="0" y="0" width="24" height="24" />
        <path class="stylesvg"
            d="M20,2 C21.1045695,2 22,2.8954305 22,4 L22,15 C22,16.1045695 21.1045695,17 20,17 L13.3997076,16.9992691 C13.5057776,17.2644441 13.6329584,17.5823961 13.78125,17.953125 L14.0332031,18.5830078 C14.2014716,19.0036791 14.3902934,19.4757336 14.5996685,19.9991713 L17,20 C17.5522847,20 18,20.4477153 18,21 C18,21.5522847 17.5522847,22 17,22 L7,22 C6.44771525,22 6,21.5522847 6,21 C6,20.4477153 6.44771525,20 7,20 L9.40033149,19.9991713 C9.60970657,19.4757336 9.79852836,19.0036791 9.96679688,18.5830078 L10.21875,17.953125 C10.3670416,17.5823961 10.4942224,17.2644441 10.6002924,16.9992691 L4,17 C2.8954305,17 2,16.1045695 2,15 L2,4 C2,2.8954305 2.8954305,2 4,2 L20,2 Z M19,4 L5,4 C4.48716416,4 4.06449284,4.38604019 4.00672773,4.88337887 L4,5 L4,14 C4,14.5128358 4.38604019,14.9355072 4.88337887,14.9932723 L5,15 L19,15 C19.5128358,15 19.9355072,14.6139598 19.9932723,14.1166211 L20,14 L20,5 C20,4.44771525 19.5522847,4 19,4 Z"
            id="Electronics" fill="#006FB9" fill-rule="nonzero" />
    </g>
</svg>