<svg width="24px" height="24px" viewBox="0 0 24 24" version="1.1" xmlns="http://www.w3.org/2000/svg"
    xmlns:xlink="http://www.w3.org/1999/xlink">
    <g id="Icon/Content/Categories/Furniture" stroke="none" stroke-width="1" fill="none"
        fill-rule="evenodd">
        <rect id="Path" fill-rule="nonzero" x="0" y="0" width="24" height="24" />
        <path class="stylesvg"
            d="M17.5430785,5 C18.5167182,5 19.3060091,5.82842049 19.3060091,6.85032895 L19.3060091,6.85032895 L19.3060091,9.10464638 C21.4002414,9.10464638 21.9713294,10.3996743 21.9993135,11.6626491 C22.0272977,12.9256239 21.1968882,14.0315483 20.0203581,14.2981861 L20.0203581,14.2981861 L20.0203581,18.4438158 C20.0203581,18.7844519 19.7572612,19.0605921 19.4327146,19.0605921 L19.4327146,19.0605921 L18.5748497,19.0604647 C18.5748511,19.061143 18.5748519,19.0618214 18.5748519,19.0625 C18.5748519,19.580267 18.1551188,20 17.6373519,20 L17.6287588,20 C17.1109918,20 16.6912588,19.580267 16.6912588,19.0625 L16.691,19.06 L7.27329136,19.0604647 C7.2732928,19.061143 7.27329352,19.0618214 7.27329352,19.0625 C7.27329352,19.580267 6.85356048,20 6.33579352,20 L6.32720047,20 C5.80943351,20 5.38970047,19.580267 5.38970047,19.0625 L5.389,19.06 L4.44790394,19.0605921 C4.15581203,19.0605921 3.91349429,18.8369185 3.86795166,18.5438601 L3.8602604,18.4438158 L3.8602604,14.2639803 C2.69828209,13.9824392 1.97028997,12.8814128 2.00093087,11.6301669 C2.03157177,10.3789209 2.56431088,8.7888001 4.63548808,8.7888001 L4.63548808,8.7888001 L4.63548808,6.85032895 C4.63548808,5.82842049 5.424779,5 6.3984187,5 L6.3984187,5 Z M5.06738673,10.3073906 C4.33019602,10.3057047 3.73082676,10.9306674 3.72757853,11.7043992 C3.7243566,12.478131 4.31847677,13.1085909 5.05565321,13.1136924 C5.21735154,13.1010375 5.37684582,13.1590699 5.49638587,13.2740543 C5.61406312,13.3933693 5.67901739,13.5587761 5.67561715,13.7304688 L5.67561715,13.7304688 L5.67561715,17.1875 L18.2453125,17.1875 L18.2453125,13.7304688 C18.2451546,13.5630457 18.3098508,13.4027488 18.4245438,13.2863898 C18.5399981,13.1693198 18.6960582,13.106921 18.8564618,13.1136924 L18.8564618,13.1136924 L18.9847208,13.1070044 C19.6600217,13.0377931 20.1874614,12.4402295 20.1874614,11.7136057 C20.1874614,10.9415679 19.5920163,10.3152341 18.8564467,10.3135348 C18.1208771,10.3118355 17.5228149,10.9354121 17.5195727,11.7074424 L17.5195727,11.7074424 L17.5195727,15.1182155 C17.5195727,15.4588516 17.2564757,15.7349918 16.9319292,15.7349918 L16.9319292,15.7349918 L6.98900046,15.7349918 C6.66445389,15.7349918 6.40135692,15.4588516 6.40135692,15.1182155 L6.40135692,15.1182155 L6.40135692,11.7105263 C6.4013409,10.9367871 5.80457743,10.3090834 5.06738673,10.3073906 Z M7.03686475,6.93922575 C6.8804984,6.94003812 6.73088861,7.00622718 6.62114982,7.1231427 C6.51141102,7.24005823 6.45059383,7.39805774 6.45212993,7.56216983 L6.45212993,7.56216983 L6.45212993,9.1848273 C7.50145497,9.52791038 8.215923,10.5477583 8.21509005,11.7012747 L8.21509005,11.7012747 L8.21509005,13.9956461 L15.6401637,14.0018138 L15.6401637,11.7012747 C15.6393308,10.5477583 16.3537988,9.52791038 17.4030943,9.1848273 L17.4030943,9.1848273 L17.4030943,7.56216983 C17.4030943,7.22153367 17.1399974,6.94539351 16.8154508,6.94539351 L16.8154508,6.94539351 Z"
            id="Furniture" fill="#006FB9" fill-rule="nonzero" />
    </g>
</svg>