<svg width="24px" height="24px" viewBox="0 0 24 24" version="1.1" xmlns="http://www.w3.org/2000/svg"
    xmlns:xlink="http://www.w3.org/1999/xlink">
    <g id="Icon/Content/Categories/Watches" stroke="none" stroke-width="1" fill="none"
        fill-rule="evenodd">
        <rect id="Path" fill-rule="nonzero" x="0" y="0" width="24" height="24" />
        <path class="stylesvg"
            d="M15.3662053,2 C15.8074145,2 16.2029311,2.24931907 16.3510765,2.62324123 L16.3851951,2.72821563 L17.5431373,6.85970149 L17.5872742,6.89544088 C18.9606442,8.03501571 19.8272512,9.70148698 19.9768305,11.4566132 L19.9944589,11.7344113 L20,12 C20,13.92216 19.087353,15.8249761 17.5912091,17.0972358 L17.5441176,17.1355852 L16.3851951,21.2717844 L16.3412122,21.3837643 C16.1699082,21.7171065 15.8866957,21.9495837 15.4992164,21.9927457 L15.3662053,22 L10.7237601,22 C10.2825509,22 9.88703429,21.7506809 9.73888892,21.3767588 L9.70477033,21.2717844 L8.54509804,17.1355852 L8.48035189,17.0833695 C7.37014582,16.144914 6.60752579,14.9249865 6.27049264,13.5690441 L6.20481376,13.2764561 L6.15588235,13.0048704 L6.04094579,13.0054988 C5.52453388,13.0054988 5.12137,12.6802313 5.02304029,12.2208493 L5.00584728,12.1125444 L5,12 C5,11.465713 5.38771927,11.0528605 5.92387133,11.0001882 L6.04094579,10.9945012 L6.18627451,10.994187 L6.21972118,10.7779041 C6.46573064,9.3790153 7.17813368,8.10171298 8.26670923,7.10461738 L8.48941324,6.90898134 L8.54509804,6.86347211 L9.70477033,2.72821563 L9.74875316,2.61623571 C9.92005724,2.28289347 10.2032697,2.05041634 10.590749,2.00725433 L10.7237601,2 L15.3662053,2 Z M11.0647059,18.489238 L11.495098,20.0276512 L14.554902,20.0276512 L14.9862745,18.5014925 L14.9667013,18.5078191 C14.4362828,18.6547876 13.8929566,18.7453103 13.3502439,18.7714021 L13.0247982,18.7792616 C12.4323095,18.7792616 11.8199037,18.694105 11.2288824,18.536827 L11.0647059,18.489238 Z M13.0247982,7.27101335 C10.3616607,7.27101335 8.17185698,9.38007235 8.17185698,12 C8.17185698,14.6199276 10.3616607,16.7289866 13.0247982,16.7289866 C15.6773079,16.7289866 17.8777393,14.6310999 17.8777393,12 C17.8777393,9.38007235 15.6879356,7.27101335 13.0247982,7.27101335 Z M13.0247982,8.36292223 C13.6206581,8.36292223 14.0657439,8.79597068 14.0657439,9.36842105 L14.0657439,9.36842105 L14.0657439,11.8428908 C14.0657439,12.1182345 13.9643028,12.3896531 13.7275552,12.6177791 L13.7275552,12.6177791 L11.2704839,14.6876096 C10.8239025,15.0134873 10.1909388,14.9519028 9.86680356,14.5516655 L9.86680356,14.5516655 L9.78392423,14.4608811 C9.45652603,14.0552174 9.5393962,13.4983685 9.93799541,13.1123448 L9.93799541,13.1123448 L11.9833333,11.3703064 L11.9838524,9.36842105 C11.9838524,8.83413404 12.3715716,8.42128159 12.9077237,8.3686092 L12.9077237,8.3686092 Z M14.5539216,3.97140613 L11.4960784,3.97140613 L11.0656863,5.53244305 L11.180347,5.4994729 C11.673006,5.36798414 12.1907342,5.2893536 12.7118764,5.26679588 L13.0247982,5.26001571 C13.5976805,5.26001571 14.1623344,5.32419956 14.7020678,5.44867425 L14.9872549,5.52113119 L14.5539216,3.97140613 Z"
            id="Watches" fill="#006FB9" fill-rule="nonzero" />
    </g>
</svg>