<svg width="24px" height="24px" viewBox="0 0 24 24" version="1.1" xmlns="http://www.w3.org/2000/svg"
    xmlns:xlink="http://www.w3.org/1999/xlink">
    <g id="Icon/Content/Categories/White_Goods" stroke="none" stroke-width="1" fill="none"
        fill-rule="evenodd">
        <rect id="Path" fill-rule="nonzero" x="0" y="0" width="24" height="24" />
        <path class="stylesvg"
            d="M17.02346,2 C18.6673576,2 20,3.34314575 20,5 L20,5 L20,19.6731919 C20,20.9463383 19.0104958,22 17.7618013,22 L17.7618013,22 L6.23816135,22 C4.98947491,22 4,20.9463477 4,19.6732317 L4,19.6732317 L4,5 C4,3.34314575 5.33264235,2 6.97654001,2 L6.97654001,2 Z M18.015,8 L5.984,8 L5.98436001,19.6732317 C5.98436001,19.8381393 6.07707199,19.9604228 6.18392196,19.9919955 L6.23816135,20 L17.7618013,20 C17.8894291,20 18.01564,19.8656058 18.01564,19.6731919 L18.01564,19.6731919 L18.015,8 Z M11.9581695,9 C14.6979989,9 16.9190695,11.2385763 16.9190695,14 C16.9190695,16.7614237 14.6979989,19 11.9581695,19 C9.21834008,19 6.99726949,16.7614237 6.99726949,14 C6.99726949,11.2385763 9.21834008,9 11.9581695,9 Z M11.9581695,11 C10.3142719,11 8.9816295,12.3431458 8.9816295,14 C8.9816295,15.6568542 10.3142719,17 11.9581695,17 C13.2538397,17 14.3561546,16.1656226 14.7650227,15.0009007 L13.2690483,15 C12.8733639,15 12.5526316,14.8263333 12.5526316,14.6120823 L12.5526316,14.6120823 L12.5526316,13.3879619 C12.5526316,13.173711 12.8733639,13.0000443 13.2690483,13 L13.2690483,13 L14.7653699,13.0000889 C14.356779,11.8348501 13.2542067,11 11.9581695,11 Z M17.02346,4 L6.97654001,4 C6.42857412,4 5.98436001,4.44771525 5.98436001,5 L5.98436001,5 L5.984,7 L18.015,7 L18.01564,5 C18.01564,4.48716416 17.6326186,4.06449284 17.1391691,4.00672773 L17.02346,4 Z M8.02094001,5 C8.29492295,5 8.51703001,5.22385763 8.51703001,5.5 C8.51703001,5.77614237 8.29492295,6 8.02094001,6 C7.74695707,6 7.52485001,5.77614237 7.52485001,5.5 C7.52485001,5.22385763 7.74695707,5 8.02094001,5 Z M10.99748,5 C11.271463,5 11.49357,5.22385763 11.49357,5.5 C11.49357,5.77614237 11.271463,6 10.99748,6 C10.7234971,6 10.50139,5.77614237 10.50139,5.5 C10.50139,5.22385763 10.7234971,5 10.99748,5 Z"
            id="Combined-Shape" fill="#006FB9" fill-rule="nonzero" />
    </g>
</svg>