<svg width="24px" height="24px" viewBox="0 0 24 24" version="1.1" xmlns="http://www.w3.org/2000/svg"
    xmlns:xlink="http://www.w3.org/1999/xlink">
    <g id="Icon/Content/Categories/Woman" stroke="none" stroke-width="1" fill="none"
        fill-rule="evenodd">
        <rect id="Path" fill-rule="nonzero" x="0" y="0" width="24" height="24" />
        <path class="stylesvg"
            d="M13.2226763,2 C16.5358893,2 19.217095,4.72264867 19.217095,8.07538705 L19.217095,8.07538705 L19.217095,10.3169171 C19.217095,11.1905223 19.4717826,12.0456059 19.9484532,12.7720935 L19.9484532,12.7720935 L20.0734669,12.9704753 C21.7267866,15.7026214 21.1199594,19.2733206 18.6322582,21.2844329 L18.6322582,21.2844329 L17.7467922,22 L17.240164,21.7665484 C16.8683004,21.5951957 16.4642909,21.5054551 16.0464601,21.5054551 L16.0464601,21.5054551 L15.8811543,21.5009551 C14.4850174,21.4247476 13.3432497,20.3890041 13.0888205,19.0357694 C12.3500265,19.1840757 11.6127842,19.1767107 10.910131,19.0359943 C10.6567575,20.3889974 9.51506998,21.424795 8.1188395,21.5010066 L8.1188395,21.5010066 L7.74584528,21.5129472 C7.40191491,21.5376857 7.06967873,21.6237998 6.7597452,21.766582 L6.7597452,21.766582 L6.25318588,22 L5.36729589,21.2841386 C2.81622427,19.2199753 2.24673586,15.5244492 4.05171774,12.7719348 C4.52851636,12.0452522 4.782938,11.1913283 4.782938,10.3169688 L4.782938,10.3169688 L4.782938,8.07538705 C4.782938,4.72264867 7.46414365,2 10.7773567,2 L10.7773567,2 Z M6.05592744,12.8366543 L5.96907133,13.0297991 C5.84830892,13.2825368 5.71033756,13.5276661 5.5557005,13.7633465 L5.5557005,13.7633465 L5.44249955,13.944955 C4.28499964,15.9010288 4.72402896,18.4447475 6.4973619,19.8796149 L6.4973619,19.8796149 L6.54642895,19.91914 L6.71104893,19.8694784 C7.03193497,19.7805626 7.36301387,19.7261191 7.69986775,19.7078983 L7.69986775,19.7078983 L7.95352193,19.7010518 C8.54160041,19.7010518 9.03441269,19.2726474 9.14222902,18.7005314 L9.14222902,18.7005314 L9.15013694,18.6451948 L9.10562716,18.6210176 C7.31739388,17.6106044 6.14271368,15.7185586 6.06108887,13.5955894 L6.06108887,13.5955894 L6.05654197,13.3587867 L6.05592744,12.8366543 Z M17.9431639,12.8366543 L17.94344,13.3587349 C17.94344,15.577146 16.748819,17.57313 14.8943549,18.6209658 L14.8943549,18.6209658 L14.8489544,18.6451948 L14.8577554,18.7004842 C14.9583944,19.234467 15.3944363,19.6432424 15.9302107,19.6953726 L15.9302107,19.6953726 L16.0464601,19.7010001 C16.4708236,19.7010001 16.8878802,19.7582906 17.2889988,19.8694573 L17.2889988,19.8694573 L17.4535624,19.91914 L17.6645985,19.7422544 C19.2997793,18.2893269 19.6799604,15.8419863 18.55776,13.9452736 L18.55776,13.9452736 L18.2954188,13.5247453 C18.1997835,13.3635585 18.1116286,13.1984194 18.0311172,13.0298853 L18.0311172,13.0298853 L17.9431639,12.8366543 Z M14.2540526,9.80336549 L14.1978517,9.83886401 C12.3261542,10.9608404 10.1902305,11.5159474 8.00742609,11.4464501 L8.00742609,11.4464501 L7.949,11.443 L7.95004697,13.0668124 C7.95004697,15.9826749 10.651321,17.9868234 13.2035807,17.1410662 L13.3773341,17.078962 L13.5363246,17.0140303 C15.0409117,16.3639132 16.0500719,14.8170383 16.0500719,13.0668124 L16.0500719,13.0668124 L16.0492276,11.2832995 C15.2793592,11.0860501 14.6484336,10.5766483 14.2719383,9.83963913 L14.2719383,9.83963913 L14.2540526,9.80336549 Z M13.2226763,3.80445496 L10.7773567,3.80445496 C8.46348165,3.80445496 6.58294353,5.7140603 6.58294353,8.07538705 L6.58294353,8.07538705 L6.58154753,9.62107015 C6.83873822,9.38588699 7.18864842,9.25354416 7.5689435,9.28950204 C9.75286878,9.49620807 11.9028057,8.92192767 13.7136904,7.64845528 C14.4581585,7.12497029 15.4810484,7.51542878 15.7090416,8.39259451 L15.7090416,8.39259451 L15.7485764,8.52439803 C15.9074081,8.98725226 16.2172071,9.22573455 16.6248313,9.24998141 L16.6248313,9.24998141 L16.745659,9.26281208 C17.0033577,9.30240797 17.2339027,9.41747065 17.4168445,9.58385371 L17.4170894,8.07538705 C17.4170894,5.77965271 15.6395746,3.9108927 13.4144651,3.8088441 L13.4144651,3.8088441 L13.2226763,3.80445496 Z"
            id="Combined-Shape" fill="#006FB9" fill-rule="nonzero" />
    </g>
</svg>