<svg width="24px" height="24px" viewBox="0 0 24 24" version="1.1" xmlns="http://www.w3.org/2000/svg"
    xmlns:xlink="http://www.w3.org/1999/xlink">
    <g id="Icon/Content/Categories/Shoes" stroke="none" stroke-width="1" fill="none"
        fill-rule="evenodd">
        <rect id="Path" fill-rule="nonzero" x="0" y="0" width="24" height="24" />
        <path class="stylesvg"
            d="M9.46642869,2.16016216 C9.67833025,1.95021086 10.3315992,1.87692959 10.8106261,2.38212065 C11.289653,2.88731171 11.564681,3.40289278 11.4639639,3.94619494 C11.3968191,4.33426792 10.9506466,5.16544737 11.4878048,5.59232764 C12.024963,6.01920791 13.058535,6.87222906 13.5545064,6.73146203 C13.885154,6.63761734 14.154866,6.52843681 14.3636424,6.40392045 C14.6657939,5.7053891 15.5994251,5.8487405 15.9687213,6.27562077 C16.3380176,6.66369374 16.4193679,7.39351656 16.3186508,8.01443332 C16.3186508,8.04912704 16.3482339,8.31774207 16.4321068,8.77053364 L16.7308872,8.69032287 C17.1039548,8.58893468 17.4885773,8.80917441 17.5899655,9.18224206 C17.5958094,9.20374546 17.6006233,9.22551564 17.6043905,9.24747824 L17.6939068,9.76934419 C17.7548956,10.1248998 17.5356841,10.4685777 17.1875625,10.5631863 L16.8756708,10.6471948 C16.9097738,10.7680298 16.9458101,10.89214 16.9838741,11.0193354 L17.3029931,10.9333553 C17.6760607,10.8319671 18.0606832,11.0522068 18.1620714,11.4252745 C18.1679153,11.4467779 18.1727292,11.4685481 18.1764964,11.4905107 L18.2660126,12.0123766 C18.3270015,12.3679322 18.10779,12.7116101 17.7596684,12.8062187 L17.6066146,12.8469512 C17.7945422,13.3382516 18.008459,13.8535837 18.2516436,14.3863459 L18.2516436,14.3863459 L18.3859332,14.5803824 L20.635283,17.9954246 C21.3403032,19.0820289 20.8702897,20.0522113 20.5009935,20.401477 C19.7197096,21.2723319 16.7941228,22.3842264 15.4886308,21.8689655 C11.6306996,20.3462898 6.5618469,14.7246352 3.09966099,10.3057494 C2.52049434,9.56654262 4.59843266,6.23492838 5.90775573,5.73043352 C6.14755849,5.43475887 6.7984517,4.7870906 7.49429659,4.10589912 L7.91426862,3.69570921 C8.54353064,3.08203347 9.14988905,2.49279613 9.46642869,2.16016216 Z M6.51088251,9.35072199 C5.95238831,8.70514231 5.91490644,8.65838195 5.68914815,8.89492655 C5.17180005,9.4369926 4.96334757,9.67794888 5.26881485,10.0231764 C5.57428212,10.368404 10.3917724,15.952823 12.8171212,17.8123197 C14.3757541,19.0073118 15.3515736,19.4221185 16.3774965,19.7824336 C17.4034193,20.1427486 17.6421142,20.2321534 17.6684129,20.0128406 C17.6853877,19.8712818 16.6071756,19.4626582 16.1242891,19.1007261 C10.9238401,15.2028962 8.11240308,11.2019662 6.51088251,9.35072199 Z M9.77634748,5.49520304 C9.82142337,4.63149091 9.69324991,4.48333147 9.46571553,4.74634508 C8.12282007,6.02698589 7.78237771,6.89223326 7.27879191,7.47434272 C8.92383885,9.64755137 14.7064122,15.972077 16.7979428,17.5134235 C18.8894733,19.0547701 18.978707,18.890689 19.2135289,18.6192515 C19.2756687,18.5474223 18.8147825,18.0542155 18.4051689,17.5807313 C17.8550857,16.9448741 17.0225673,15.6657696 16.5822483,15.1038014 C16.2279815,14.6516594 16.0386366,14.2162625 15.7721894,13.3474937 L15.4554111,13.4324442 C15.0823435,13.5338324 14.697721,13.3135926 14.5963329,12.940525 C14.5904889,12.9190216 14.5856751,12.8972514 14.5819078,12.8752888 L14.4923916,12.3534229 C14.4314027,11.9978673 14.6506143,11.6541894 14.9987358,11.5595807 L15.2187937,11.4993096 C15.1806123,11.3754702 15.1426432,11.2520543 15.1053723,11.1295961 L14.8833053,11.1894118 C14.5102376,11.2907999 14.1256151,11.0705602 14.024227,10.6974926 C14.018383,10.6759892 14.0135692,10.654219 14.0098019,10.6322564 L13.9202857,10.1103904 C13.8592968,9.75483487 14.0785084,9.41115695 14.4266299,9.31654834 L14.6307893,9.25979603 C14.6068423,9.100548 14.5924702,8.95235852 14.5899562,8.8177372 C14.5834993,8.47197604 14.5672829,8.17947929 14.3504864,8.54092709 C14.1336899,8.9023749 13.5471061,8.98309488 13.2113822,8.90548028 C12.3049278,8.6726365 11.0122062,8.02331179 10.3584056,7.44071456 C9.70460504,6.85811733 9.70920271,5.88327601 9.77634748,5.49520304 Z"
            id="Shoes" fill="#006FB9" fill-rule="nonzero" />
    </g>
</svg>